<?xml version="1.0" encoding="UTF-8" standalone="no"?>
<svg
   version="1.1"
   viewBox="0 0 16 16"
   id="svg16"
   sodipodi:docname="view-app-grid.svg"
   inkscape:version="1.2.2 (b0a8486541, 2022-12-01)"
   xmlns:inkscape="http://www.inkscape.org/namespaces/inkscape"
   xmlns:sodipodi="http://sodipodi.sourceforge.net/DTD/sodipodi-0.dtd"
   xmlns="http://www.w3.org/2000/svg"
   xmlns:svg="http://www.w3.org/2000/svg">
  <defs
     id="defs20" />
  <sodipodi:namedview
     id="namedview18"
     pagecolor="#ffffff"
     bordercolor="#000000"
     borderopacity="0.25"
     inkscape:showpageshadow="2"
     inkscape:pageopacity="0.0"
     inkscape:pagecheckerboard="0"
     inkscape:deskcolor="#d1d1d1"
     showgrid="false"
     inkscape:zoom="14.75"
     inkscape:cx="6.8135593"
     inkscape:cy="8"
     inkscape:window-width="2489"
     inkscape:window-height="1536"
     inkscape:window-x="0"
     inkscape:window-y="0"
     inkscape:window-maximized="1"
     inkscape:current-layer="g14" />
  <g
     fill="#808080"
     id="g14">
    <path
       d="m10.176 10.551a1.675 1.675 0 0 1 1.6738 1.6738 1.675 1.675 0 0 1-1.6738 1.6758 1.675 1.675 0 0 1-1.6758-1.6758 1.675 1.675 0 0 1 1.6758-1.6738z"
       id="path2"
       style="fill:#ff5300;fill-opacity:1" />
    <path
       d="m4.5898 10.086a4.04 4.04 0 0 0 2.7754 2.125 1.445 1.445 0 0 0 0.41016 0.06445 2.355 2.355 0 0 0 0.5 1.4004 5.5 5.5 0 0 1-1.1855-0.125 5.435 5.435 0 0 1-3.9258-3.291 2.415 2.415 0 0 0 1.4258-0.17383z"
       id="path4"
       style="fill:#ff5300;fill-opacity:1" />
    <path
       d="m3.5898 6.2344a1.675 1.675 0 0 1 1.6758 1.6758 1.675 1.675 0 0 1-1.6758 1.6758 1.675 1.675 0 0 1-1.6758-1.6758 1.675 1.675 0 0 1 1.6758-1.6758z"
       id="path6"
       style="fill:#ff5300;fill-opacity:1" />
    <path
       d="m12.775 5.1992a5.5 5.5 0 0 1-0.27539 6.416 2.29 2.29 0 0 0-0.80078-1.2402 4.04 4.04 0 0 0 0.52539-1.3008 4.11 4.11 0 0 0-0.38867-2.7734 2.425 2.425 0 0 0 0.93945-1.1016z"
       id="path8"
       style="fill:#ff5300;fill-opacity:1" />
    <path
       d="m8.1191 2.7402a5.5 5.5 0 0 1 0.51562 0.015625 2.315 2.315 0 0 0-0.45898 0.97461 3.21 3.21 0 0 0-0.050781 0.375 4.06 4.06 0 0 0-3.2891 1.7598 2.42 2.42 0 0 0-0.76172-0.31445 2.325 2.325 0 0 0-0.5-0.050781h-0.125a5.5 5.5 0 0 1 4.6699-2.7598z"
       id="path10"
       style="fill:#ff5300;fill-opacity:1" />
    <path
       d="m10.551 2.5645a1.675 1.675 0 0 1 1.6738 1.6758 1.675 1.675 0 0 1-1.6738 1.6738 1.675 1.675 0 0 1-1.6758-1.6738 1.675 1.675 0 0 1 1.6758-1.6758z"
       id="path12"
       style="fill:#ff5300;fill-opacity:1" />
    <path
       d="m 36.279298,-1.749347 a 1.675,1.675 0 0 1 1.6738,1.6738 1.675,1.675 0 0 1 -1.6738,1.6758 1.675,1.675 0 0 1 -1.6758,-1.6758 1.675,1.675 0 0 1 1.6758,-1.6738 z"
       id="path2-3"
       style="fill-opacity:1;fill:#ff5300" />
    <path
       d="m 30.693098,-2.214347 a 4.04,4.04 0 0 0 2.7754,2.125 1.445,1.445 0 0 0 0.41016,0.06445 2.355,2.355 0 0 0 0.5,1.4004 5.5,5.5 0 0 1 -1.1855,-0.125 5.435,5.435 0 0 1 -3.9258,-3.291 2.415,2.415 0 0 0 1.4258,-0.17383 z"
       id="path4-6"
       style="fill-opacity:1;fill:#ff5300" />
    <path
       d="m 29.693098,-6.065947 a 1.675,1.675 0 0 1 1.6758,1.6758 1.675,1.675 0 0 1 -1.6758,1.6758 1.675,1.675 0 0 1 -1.6758,-1.6758 1.675,1.675 0 0 1 1.6758,-1.6758 z"
       id="path6-7"
       style="fill-opacity:1;fill:#ff5300" />
    <path
       d="m 38.878298,-7.101147 a 5.5,5.5 0 0 1 -0.27539,6.416 2.29,2.29 0 0 0 -0.80078,-1.2402 4.04,4.04 0 0 0 0.52539,-1.3008 4.11,4.11 0 0 0 -0.38867,-2.7734 2.425,2.425 0 0 0 0.93945,-1.1016 z"
       id="path8-5"
       style="fill-opacity:1;fill:#ff5300" />
    <path
       d="m 34.222398,-9.560147 a 5.5,5.5 0 0 1 0.51562,0.015625 2.315,2.315 0 0 0 -0.45898,0.97461 3.21,3.21 0 0 0 -0.05078,0.375 4.06,4.06 0 0 0 -3.2891,1.7598 2.42,2.42 0 0 0 -0.76172,-0.31445 2.325,2.325 0 0 0 -0.5,-0.050781 h -0.125 a 5.5,5.5 0 0 1 4.6699,-2.7598 z"
       id="path10-3"
       style="fill-opacity:1;fill:#ff5300" />
    <path
       d="m 36.654298,-9.735847 a 1.675,1.675 0 0 1 1.6738,1.6758 1.675,1.675 0 0 1 -1.6738,1.6738 1.675,1.675 0 0 1 -1.6758,-1.6738 1.675,1.675 0 0 1 1.6758,-1.6758 z"
       id="path12-5"
       style="fill-opacity:1;fill:#ff5300" />
  </g>
</svg>
