<?xml version="1.0" encoding="UTF-8" standalone="no"?>
<svg
   width="24"
   height="24"
   viewBox="0 0 24 24"
   fill="none"
   version="1.1"
   id="svg7"
   sodipodi:docname="image-loading.svg"
   inkscape:version="1.3.2 (1:1.3.2+202404261509+091e20ef0f)"
   xmlns:inkscape="http://www.inkscape.org/namespaces/inkscape"
   xmlns:sodipodi="http://sodipodi.sourceforge.net/DTD/sodipodi-0.dtd"
   xmlns="http://www.w3.org/2000/svg"
   xmlns:svg="http://www.w3.org/2000/svg">
  <sodipodi:namedview
     id="namedview7"
     pagecolor="#ffffff"
     bordercolor="#000000"
     borderopacity="0.25"
     inkscape:showpageshadow="2"
     inkscape:pageopacity="0.0"
     inkscape:pagecheckerboard="0"
     inkscape:deskcolor="#d1d1d1"
     inkscape:zoom="49.791667"
     inkscape:cx="11.989958"
     inkscape:cy="10.393305"
     inkscape:window-width="2560"
     inkscape:window-height="1475"
     inkscape:window-x="0"
     inkscape:window-y="27"
     inkscape:window-maximized="1"
     inkscape:current-layer="svg7" />
  <path
     d="M6.77778 11.8889C6.77778 12.6551 6.47341 13.3899 5.93164 13.9316C5.38987 14.4734 4.65507 14.7778 3.88889 14.7778C3.12271 14.7778 2.38791 14.4734 1.84614 13.9316C1.30436 13.3899 1 12.6551 1 11.8889C1 11.1227 1.30436 10.3879 1.84614 9.84614C2.38791 9.30436 3.12271 9 3.88889 9C4.65507 9 5.38987 9.30436 5.93164 9.84614C6.47341 10.3879 6.77778 11.1227 6.77778 11.8889ZM23 11.8889C23 12.6551 22.6956 13.3899 22.1539 13.9316C21.6121 14.4734 20.8773 14.7778 20.1111 14.7778C19.3449 14.7778 18.6101 14.4734 18.0684 13.9316C17.5266 13.3899 17.2222 12.6551 17.2222 11.8889C17.2222 11.1227 17.5266 10.3879 18.0684 9.84614C18.6101 9.30436 19.3449 9 20.1111 9C20.8773 9 21.6121 9.30436 22.1539 9.84614C22.6956 10.3879 23 11.1227 23 11.8889Z"
     fill="url(#paint0_linear_8_626)"
     id="path1" />
  <path
     opacity="0.5"
     d="M14.8 11.9C14.8 12.6691 14.4945 13.4068 13.9506 13.9506C13.4068 14.4945 12.6691 14.8 11.9 14.8C11.1309 14.8 10.3932 14.4945 9.84939 13.9506C9.30554 13.4068 9 12.6691 9 11.9C9 11.1309 9.30554 10.3932 9.84939 9.84939C10.3932 9.30554 11.1309 9 11.9 9C12.6691 9 13.4068 9.30554 13.9506 9.84939C14.4945 10.3932 14.8 11.1309 14.8 11.9Z"
     fill="url(#paint1_linear_8_626)"
     id="path2"
     style="opacity:0.99999999" />
  <defs
     id="defs7">
    <linearGradient
       id="paint0_linear_8_626"
       x1="0.682006"
       y1="9.05685"
       x2="3.53392"
       y2="20.2483"
       gradientUnits="userSpaceOnUse">
      <stop
         stop-color="#F9D423"
         id="stop2"
         offset="0.99130398"
         style="stop-color:#e9500d;stop-opacity:1;" />
      <stop
         offset="0.99130398"
         stop-color="#FF4E50"
         id="stop3" />
      <stop
         offset="0.99130398"
         stop-color="#8A2387"
         id="stop4"
         style="stop-color:#e9500d;stop-opacity:1;" />
    </linearGradient>
    <linearGradient
       id="paint1_linear_8_626"
       x1="8.91617"
       y1="9.05707"
       x2="14.8955"
       y2="15.2193"
       gradientUnits="userSpaceOnUse">
      <stop
         stop-color="#F9D423"
         id="stop5"
         offset="0.99130398"
         style="stop-color:#4c4c4c;stop-opacity:1;" />
      <stop
         offset="0.99130398"
         stop-color="#FF4E50"
         id="stop6"
         style="stop-color:#ffffdb;stop-opacity:1;" />
      <stop
         offset="0.99130398"
         stop-color="#8A2387"
         id="stop7"
         style="stop-color:#ffffdb;stop-opacity:1;" />
    </linearGradient>
  </defs>
</svg>
