<?xml version="1.0" encoding="UTF-8" standalone="no"?>
<svg
   width="64"
   height="64"
   viewBox="0 0 64 64"
   fill="none"
   version="1.1"
   id="svg8"
   sodipodi:docname="org.gnome.Files.svg"
   inkscape:version="1.2.2 (b0a8486541, 2022-12-01)"
   xmlns:inkscape="http://www.inkscape.org/namespaces/inkscape"
   xmlns:sodipodi="http://sodipodi.sourceforge.net/DTD/sodipodi-0.dtd"
   xmlns:xlink="http://www.w3.org/1999/xlink"
   xmlns="http://www.w3.org/2000/svg"
   xmlns:svg="http://www.w3.org/2000/svg">
  <sodipodi:namedview
     id="namedview8"
     pagecolor="#ffffff"
     bordercolor="#000000"
     borderopacity="0.25"
     inkscape:showpageshadow="2"
     inkscape:pageopacity="0.0"
     inkscape:pagecheckerboard="0"
     inkscape:deskcolor="#d1d1d1"
     inkscape:zoom="10.368799"
     inkscape:cx="29.559836"
     inkscape:cy="25.412779"
     inkscape:window-width="2560"
     inkscape:window-height="1471"
     inkscape:window-x="0"
     inkscape:window-y="27"
     inkscape:window-maximized="1"
     inkscape:current-layer="svg8"
     showgrid="false" />
  <g
     opacity="0.5"
     id="g2">
    <path
       fill-rule="evenodd"
       clip-rule="evenodd"
       d="M53.4038 6.61768C55.6129 6.61768 57.4038 8.40854 57.4038 10.6177V27.2761C57.4038 25.067 55.613 23.2761 53.4038 23.2761H30.9402C29.9476 23.2761 28.9904 22.907 28.2548 22.2406L25.8081 20.0243C25.0724 19.3578 24.1153 18.9888 23.1226 18.9888H10.5962C8.38705 18.9888 6.59619 20.7796 6.59619 22.9888V14.905C6.59619 12.6959 8.38705 10.905 10.5962 10.905H33.0598C34.0524 10.905 35.0096 10.5359 35.7452 9.86953L38.1919 7.65316C38.9276 6.98675 39.8847 6.61768 40.8774 6.61768H53.4038Z"
       fill="url(#paint0_linear_339_364)"
       id="path1"
       style="fill:url(#paint0_linear_339_364)" />
    <path
       d="M6.59619 22.9888C6.59619 20.7796 8.38705 18.9888 10.5962 18.9888H23.1226C24.1153 18.9888 25.0724 19.3578 25.8081 20.0243L28.2548 22.2406C28.9904 22.907 29.9476 23.2761 30.9402 23.2761H53.4038C55.613 23.2761 57.4038 25.067 57.4038 27.2761V53.3823C57.4038 55.5915 55.6129 57.3823 53.4038 57.3823H10.5962C8.38705 57.3823 6.59619 55.5915 6.59619 53.3823V22.9888Z"
       fill="url(#paint1_linear_339_364)"
       id="path2"
       style="opacity:0.99999999" />
  </g>
  <path
     d="M14.271 15.4624C12.6141 15.4624 11.271 16.8055 11.271 18.4624V18.9995H23.1226C24.1153 18.9995 25.0724 19.3686 25.8081 20.035L28.2548 22.2514C28.9904 22.9178 29.9476 23.2869 30.9402 23.2869H52.7292V18.4624C52.7292 16.8055 51.3861 15.4624 49.7292 15.4624H14.271Z"
     fill="url(#paint2_linear_339_364)"
     id="path3" />
  <defs
     id="defs8">
    <linearGradient
       id="paint0_linear_339_364"
       x1="47.9691"
       y1="23.5643"
       x2="48.114567"
       y2="23.718124"
       gradientUnits="userSpaceOnUse">
      <stop
         stop-color="#248EFE"
         id="stop3"
         offset="1"
         style="stop-color:#e9500d;stop-opacity:1;" />
      <stop
         offset="1"
         stop-color="#1DF4FF"
         id="stop4"
         style="stop-color:#e9500d;stop-opacity:1;" />
    </linearGradient>
    <linearGradient
       id="paint1_linear_339_364"
       x1="47.9691"
       y1="50.4843"
       x2="27.9455"
       y2="20.0035"
       gradientUnits="userSpaceOnUse">
      <stop
         stop-color="#248EFE"
         id="stop5"
         offset="1"
         style="stop-color:#e9500d;stop-opacity:1;" />
      <stop
         offset="1"
         stop-color="#1DF4FF"
         id="stop6"
         style="stop-color:#e9500d;stop-opacity:1;" />
    </linearGradient>
    <linearGradient
       id="paint2_linear_339_364"
       x1="48.6262"
       y1="24.9251"
       x2="14.318"
       y2="12.3101"
       gradientUnits="userSpaceOnUse">
      <stop
         stop-color="#248EFE"
         id="stop7"
         offset="0"
         style="stop-color:#ffffca;stop-opacity:1;" />
      <stop
         offset="0.92039901"
         stop-color="#1DF4FF"
         id="stop8"
         style="stop-color:#ffffca;stop-opacity:1;" />
    </linearGradient>
    <linearGradient
       inkscape:collect="always"
       xlink:href="#paint2_linear_339_364"
       id="linearGradient1012"
       gradientUnits="userSpaceOnUse"
       x1="48.6262"
       y1="24.9251"
       x2="14.318"
       y2="12.3101"
       gradientTransform="translate(0.01903738,0.01043022)" />
  </defs>
  <g
     opacity="0.5"
     id="g974">
    <path
       fill-rule="evenodd"
       clip-rule="evenodd"
       d="M53.4038 6.61768C55.6129 6.61768 57.4038 8.40854 57.4038 10.6177V27.2761C57.4038 25.067 55.613 23.2761 53.4038 23.2761H30.9402C29.9476 23.2761 28.9904 22.907 28.2548 22.2406L25.8081 20.0243C25.0724 19.3578 24.1153 18.9888 23.1226 18.9888H10.5962C8.38705 18.9888 6.59619 20.7796 6.59619 22.9888V14.905C6.59619 12.6959 8.38705 10.905 10.5962 10.905H33.0598C34.0524 10.905 35.0096 10.5359 35.7452 9.86953L38.1919 7.65316C38.9276 6.98675 39.8847 6.61768 40.8774 6.61768H53.4038Z"
       fill="url(#paint0_linear_339_364)"
       id="path970"
       style="fill:url(#paint0_linear_339_364)" />
    <path
       d="M6.59619 22.9888C6.59619 20.7796 8.38705 18.9888 10.5962 18.9888H23.1226C24.1153 18.9888 25.0724 19.3578 25.8081 20.0243L28.2548 22.2406C28.9904 22.907 29.9476 23.2761 30.9402 23.2761H53.4038C55.613 23.2761 57.4038 25.067 57.4038 27.2761V53.3823C57.4038 55.5915 55.6129 57.3823 53.4038 57.3823H10.5962C8.38705 57.3823 6.59619 55.5915 6.59619 53.3823V22.9888Z"
       fill="url(#paint1_linear_339_364)"
       id="path972"
       style="opacity:0.99999999" />
  </g>
  <g
     opacity="0.5"
     id="g980">
    <path
       fill-rule="evenodd"
       clip-rule="evenodd"
       d="M53.4038 6.61768C55.6129 6.61768 57.4038 8.40854 57.4038 10.6177V27.2761C57.4038 25.067 55.613 23.2761 53.4038 23.2761H30.9402C29.9476 23.2761 28.9904 22.907 28.2548 22.2406L25.8081 20.0243C25.0724 19.3578 24.1153 18.9888 23.1226 18.9888H10.5962C8.38705 18.9888 6.59619 20.7796 6.59619 22.9888V14.905C6.59619 12.6959 8.38705 10.905 10.5962 10.905H33.0598C34.0524 10.905 35.0096 10.5359 35.7452 9.86953L38.1919 7.65316C38.9276 6.98675 39.8847 6.61768 40.8774 6.61768H53.4038Z"
       fill="url(#paint0_linear_339_364)"
       id="path976"
       style="fill:url(#paint0_linear_339_364)" />
    <path
       d="M6.59619 22.9888C6.59619 20.7796 8.38705 18.9888 10.5962 18.9888H23.1226C24.1153 18.9888 25.0724 19.3578 25.8081 20.0243L28.2548 22.2406C28.9904 22.907 29.9476 23.2761 30.9402 23.2761H53.4038C55.613 23.2761 57.4038 25.067 57.4038 27.2761V53.3823C57.4038 55.5915 55.6129 57.3823 53.4038 57.3823H10.5962C8.38705 57.3823 6.59619 55.5915 6.59619 53.3823V22.9888Z"
       fill="url(#paint1_linear_339_364)"
       id="path978"
       style="opacity:0.99999999" />
  </g>
  <g
     opacity="0.5"
     id="g986">
    <path
       fill-rule="evenodd"
       clip-rule="evenodd"
       d="M53.4038 6.61768C55.6129 6.61768 57.4038 8.40854 57.4038 10.6177V27.2761C57.4038 25.067 55.613 23.2761 53.4038 23.2761H30.9402C29.9476 23.2761 28.9904 22.907 28.2548 22.2406L25.8081 20.0243C25.0724 19.3578 24.1153 18.9888 23.1226 18.9888H10.5962C8.38705 18.9888 6.59619 20.7796 6.59619 22.9888V14.905C6.59619 12.6959 8.38705 10.905 10.5962 10.905H33.0598C34.0524 10.905 35.0096 10.5359 35.7452 9.86953L38.1919 7.65316C38.9276 6.98675 39.8847 6.61768 40.8774 6.61768H53.4038Z"
       fill="url(#paint0_linear_339_364)"
       id="path982"
       style="fill:url(#paint0_linear_339_364)" />
    <path
       d="M6.59619 22.9888C6.59619 20.7796 8.38705 18.9888 10.5962 18.9888H23.1226C24.1153 18.9888 25.0724 19.3578 25.8081 20.0243L28.2548 22.2406C28.9904 22.907 29.9476 23.2761 30.9402 23.2761H53.4038C55.613 23.2761 57.4038 25.067 57.4038 27.2761V53.3823C57.4038 55.5915 55.6129 57.3823 53.4038 57.3823H10.5962C8.38705 57.3823 6.59619 55.5915 6.59619 53.3823V22.9888Z"
       fill="url(#paint1_linear_339_364)"
       id="path984"
       style="opacity:0.99999999" />
  </g>
  <g
     opacity="0.5"
     id="g992">
    <path
       fill-rule="evenodd"
       clip-rule="evenodd"
       d="M53.4038 6.61768C55.6129 6.61768 57.4038 8.40854 57.4038 10.6177V27.2761C57.4038 25.067 55.613 23.2761 53.4038 23.2761H30.9402C29.9476 23.2761 28.9904 22.907 28.2548 22.2406L25.8081 20.0243C25.0724 19.3578 24.1153 18.9888 23.1226 18.9888H10.5962C8.38705 18.9888 6.59619 20.7796 6.59619 22.9888V14.905C6.59619 12.6959 8.38705 10.905 10.5962 10.905H33.0598C34.0524 10.905 35.0096 10.5359 35.7452 9.86953L38.1919 7.65316C38.9276 6.98675 39.8847 6.61768 40.8774 6.61768H53.4038Z"
       fill="url(#paint0_linear_339_364)"
       id="path988"
       style="fill:url(#paint0_linear_339_364)" />
    <path
       d="M6.59619 22.9888C6.59619 20.7796 8.38705 18.9888 10.5962 18.9888H23.1226C24.1153 18.9888 25.0724 19.3578 25.8081 20.0243L28.2548 22.2406C28.9904 22.907 29.9476 23.2761 30.9402 23.2761H53.4038C55.613 23.2761 57.4038 25.067 57.4038 27.2761V53.3823C57.4038 55.5915 55.6129 57.3823 53.4038 57.3823H10.5962C8.38705 57.3823 6.59619 55.5915 6.59619 53.3823V22.9888Z"
       fill="url(#paint1_linear_339_364)"
       id="path990"
       style="opacity:0.99999999" />
  </g>
  <path
     d="m 14.290037,15.47283 c -1.6569,0 -3,1.3431 -3,3 v 0.5371 h 11.8516 c 0.9927,0 1.9498,0.3691 2.6855,1.0355 l 2.4467,2.2164 c 0.7356,0.6664 1.6928,1.0355 2.6854,1.0355 h 21.788998 v -4.8245 c 0,-1.6569 -1.3431,-3 -3,-3 z"
     fill="url(#paint2_linear_339_364)"
     id="path3-6"
     style="fill:url(#linearGradient1012)" />
</svg>
