<?xml version="1.0" encoding="UTF-8" standalone="no"?>
<svg
   width="128"
   height="128"
   viewBox="0 0 128 128"
   fill="none"
   version="1.1"
   id="svg7"
   sodipodi:docname="application-vnd.debian.binary-package.svg"
   inkscape:version="1.3.2 (1:1.3.2+202404261509+091e20ef0f)"
   xmlns:inkscape="http://www.inkscape.org/namespaces/inkscape"
   xmlns:sodipodi="http://sodipodi.sourceforge.net/DTD/sodipodi-0.dtd"
   xmlns="http://www.w3.org/2000/svg"
   xmlns:svg="http://www.w3.org/2000/svg">
  <sodipodi:namedview
     id="namedview7"
     pagecolor="#ffffff"
     bordercolor="#000000"
     borderopacity="0.25"
     inkscape:showpageshadow="2"
     inkscape:pageopacity="0.0"
     inkscape:pagecheckerboard="0"
     inkscape:deskcolor="#d1d1d1"
     inkscape:zoom="9.4140625"
     inkscape:cx="64.053112"
     inkscape:cy="64"
     inkscape:window-width="2560"
     inkscape:window-height="1475"
     inkscape:window-x="0"
     inkscape:window-y="27"
     inkscape:window-maximized="1"
     inkscape:current-layer="svg7" />
  <path
     opacity="0.4"
     d="M11 38C11 22.536 23.536 10 39 10H89C104.464 10 117 22.536 117 38V90C117 105.464 104.464 118 89 118H39C23.536 118 11 105.464 11 90V38Z"
     fill="url(#paint0_linear_59_457)"
     id="path1"
     style="opacity:1" />
  <path
     d="m 62.7295,33.3235 c 0.1089,-0.1078 0.2447,-0.1887 0.4073,-0.2426 C 63.3,33.0269 63.4899,33 63.7073,33 c 0.2178,0 0.4351,0 0.652,0 0.2168,0 0.4346,0 0.6519,0 0.2178,0 0.4347,0 0.652,0 0.2169,0 0.4347,0 0.652,0 0.2178,0 0.4347,0 0.652,0 0.2178,0 0.4351,0 0.6515,0 0.2173,0 0.4351,0 0.6525,0 0.2168,0 0.4346,0 0.652,0 0.2168,0 0.4346,0 0.6519,0 0.2174,0 0.4347,0 0.652,0 0.2169,0 0.4078,0.0269 0.57,0.0809 0.1631,0.0539 0.2989,0.1348 0.4078,0.2426 0.1089,0.1079 0.2442,0.1888 0.4073,0.2427 0.1626,0.0539 0.3536,0.0809 0.5709,0.0809 0.2168,0 0.4346,0 0.6515,0 0.2173,0 0.4342,0 0.652,0 0.2173,0 0.4073,0.0269 0.5704,0.0807 0.1631,0.0542 0.2989,0.1349 0.4078,0.2428 0.108,0.1078 0.2442,0.1887 0.4068,0.2426 0.1636,0.054 0.3531,0.0809 0.5709,0.0809 0.2174,0 0.4074,0.027 0.57,0.0809 0.1636,0.0539 0.2994,0.1348 0.4073,0.2426 0.1089,0.1079 0.2452,0.1887 0.4078,0.2427 0.1631,0.0538 0.3262,0.1078 0.4889,0.1617 0.1631,0.0541 0.2989,0.1347 0.4082,0.2427 0.108,0.1078 0.2438,0.1888 0.4069,0.2427 0.1631,0.0539 0.3257,0.1078 0.4893,0.1616 0.1631,0.054 0.2989,0.1348 0.4069,0.2428 0.1093,0.1077 0.2446,0.1887 0.4077,0.2425 0.1632,0.054 0.3263,0.1078 0.4889,0.162 0.1631,0.0538 0.2989,0.1348 0.4073,0.2424 0.1089,0.108 0.2447,0.1888 0.4078,0.2428 0.1627,0.0539 0.3258,0.1078 0.4889,0.1618 0.1631,0.0537 0.2993,0.1347 0.4073,0.2426 0.1089,0.1079 0.2178,0.2156 0.3258,0.3234 0.1089,0.108 0.2173,0.2158 0.3262,0.3236 0.1089,0.1079 0.2447,0.1888 0.4078,0.2428 0.1631,0.0538 0.3257,0.1077 0.4888,0.1616 0.1632,0.054 0.2985,0.1348 0.4074,0.2427 0.1089,0.1078 0.2178,0.2157 0.3257,0.3236 0.1089,0.1077 0.2173,0.2155 0.3262,0.3235 0.1089,0.1078 0.2174,0.2156 0.3258,0.3235 0.1089,0.1079 0.2173,0.2157 0.3262,0.3234 0.1085,0.108 0.2169,0.2158 0.3258,0.3236 0.1089,0.1079 0.2173,0.2157 0.3257,0.3237 0.1094,0.1076 0.2174,0.2154 0.3263,0.3234 0.1089,0.1078 0.2173,0.2157 0.3262,0.3236 0.108,0.1079 0.2169,0.2155 0.3258,0.3234 0.1089,0.1079 0.2173,0.2158 0.3262,0.3236 0.1079,0.1078 0.2173,0.2158 0.3257,0.3234 0.1089,0.108 0.19,0.2428 0.2442,0.4045 0.0547,0.1618 0.1089,0.3234 0.1632,0.4854 0.0546,0.1617 0.1357,0.2965 0.2446,0.4043 0.1089,0.108 0.2174,0.2158 0.3258,0.3235 0.1084,0.1079 0.2173,0.2158 0.3262,0.3236 0.1089,0.1078 0.19,0.2426 0.2442,0.4043 0.0547,0.162 0.1089,0.3236 0.1631,0.4854 0.0547,0.1618 0.1358,0.2965 0.2447,0.4044 0.1084,0.1079 0.2169,0.2157 0.3262,0.3235 0.108,0.1079 0.2169,0.2157 0.3258,0.3237 0.1079,0.1076 0.19,0.2424 0.2442,0.4044 0.0547,0.1616 0.1089,0.3234 0.1626,0.4853 0.0542,0.1616 0.1363,0.2963 0.2452,0.4043 0.1084,0.1078 0.19,0.2426 0.2442,0.4044 0.0537,0.1617 0.0815,0.3505 0.0815,0.5662 0,0.2157 0.0274,0.4044 0.0816,0.566 0.0537,0.1618 0.1358,0.2967 0.2437,0.4046 0.1094,0.1078 0.1909,0.2426 0.2452,0.4044 0.0542,0.1617 0.0815,0.3504 0.0815,0.566 0,0.2158 0.0269,0.4044 0.0816,0.5663 0.0547,0.1618 0.1357,0.2966 0.2446,0.4044 0.1085,0.1079 0.19,0.2427 0.2442,0.4045 0.0543,0.1616 0.0816,0.3503 0.0816,0.5663 0,0.2156 0,0.4311 0,0.6472 0,0.2153 0.0273,0.4043 0.0811,0.566 0.0551,0.1617 0.1358,0.2965 0.2451,0.4045 0.108,0.1075 0.19,0.2423 0.2438,0.404 0.0546,0.1622 0.082,0.3507 0.082,0.5662 0,0.2159 0,0.4318 0,0.6473 0,0.2154 0,0.4313 0,0.6468 0,0.2159 0,0.4313 0,0.6472 0,0.2155 0,0.4309 0,0.6473 0,0.2154 0,0.4314 0,0.6468 0,0.2159 0,0.4314 0,0.6468 0,0.2159 0,0.4314 0,0.6477 0,0.2155 0,0.4309 0,0.6464 0,0.2164 0,0.4318 0,0.6472 0,0.216 0,0.4314 0,0.6473 0,0.2155 -0.0274,0.4045 -0.082,0.5662 -0.0538,0.1617 -0.1358,0.2961 -0.2438,0.404 -0.1093,0.1084 -0.19,0.2428 -0.2451,0.405 -0.0538,0.1612 -0.0811,0.3502 -0.0811,0.5662 0,0.2154 0,0.4308 0,0.6468 0,0.2154 -0.0273,0.4044 -0.0816,0.5661 -0.0542,0.1622 -0.1357,0.2966 -0.2442,0.4045 -0.1089,0.1075 -0.1899,0.2428 -0.2446,0.4045 -0.0547,0.1617 -0.0816,0.3503 -0.0816,0.5662 0,0.2154 -0.0273,0.404 -0.0815,0.5662 -0.0543,0.1612 -0.1358,0.2965 -0.2452,0.4045 -0.1079,0.1075 -0.19,0.2423 -0.2437,0.404 -0.0542,0.1622 -0.1094,0.3234 -0.1631,0.4851 -0.0542,0.1622 -0.1358,0.297 -0.2442,0.4049 -0.1089,0.1071 -0.191,0.2424 -0.2452,0.4041 -0.0537,0.1621 -0.1079,0.3234 -0.1626,0.4855 -0.0542,0.1617 -0.1363,0.2966 -0.2442,0.404 -0.1089,0.108 -0.2178,0.216 -0.3258,0.3239 -0.1093,0.108 -0.2178,0.2155 -0.3262,0.3239 -0.1089,0.1079 -0.19,0.2423 -0.2447,0.4035 -0.0542,0.1627 -0.1084,0.3239 -0.1631,0.4861 -0.0542,0.1617 -0.1353,0.2965 -0.2442,0.404 -0.1089,0.1079 -0.2178,0.2154 -0.3262,0.3234 -0.1084,0.1084 -0.2169,0.2159 -0.3258,0.3239 -0.1089,0.1074 -0.2168,0.2159 -0.3262,0.3238 -0.1084,0.107 -0.2169,0.215 -0.3258,0.323 -0.1084,0.1079 -0.2178,0.2159 -0.3257,0.3234 -0.1089,0.1084 -0.2173,0.2163 -0.3262,0.3238 -0.1089,0.108 -0.2178,0.2159 -0.3258,0.3239 -0.1089,0.1075 -0.2173,0.215 -0.3262,0.3234 -0.1089,0.1075 -0.2169,0.2154 -0.3263,0.3234 -0.1084,0.108 -0.2168,0.2154 -0.3257,0.3229 -0.1089,0.1085 -0.2173,0.2164 -0.3258,0.3239 -0.1089,0.108 -0.2173,0.2154 -0.3262,0.3239 -0.1084,0.1079 -0.2169,0.2154 -0.3258,0.3234 -0.1089,0.1084 -0.2451,0.1885 -0.4073,0.2423 -0.1631,0.0542 -0.3267,0.1084 -0.4888,0.1617 -0.1632,0.0542 -0.2989,0.1353 -0.4078,0.2432 -0.1089,0.1075 -0.2442,0.1886 -0.4073,0.2428 -0.1627,0.0533 -0.3258,0.107 -0.4889,0.1613 -0.1631,0.0537 -0.2989,0.1353 -0.4078,0.2427 -0.108,0.108 -0.2442,0.1886 -0.4073,0.2424 -0.1631,0.0542 -0.3262,0.1084 -0.4889,0.1621 -0.1631,0.0542 -0.2989,0.1349 -0.4078,0.2428 -0.1084,0.1075 -0.2442,0.1886 -0.4073,0.2428 -0.1626,0.0537 -0.3531,0.0806 -0.5709,0.0806 -0.2164,0 -0.4068,0.0264 -0.5695,0.0806 -0.1631,0.0538 -0.2993,0.1349 -0.4082,0.2433 -0.108,0.1075 -0.2442,0.1881 -0.4073,0.2423 -0.1632,0.0537 -0.3531,0.0806 -0.5705,0.0806 -0.2173,0 -0.4073,0.0274 -0.5704,0.0811 -0.1626,0.0537 -0.2989,0.1353 -0.4078,0.2428 -0.1079,0.1079 -0.2437,0.1886 -0.4073,0.2423 -0.1626,0.0542 -0.3526,0.0816 -0.57,0.0816 -0.2178,0 -0.4346,0 -0.6519,0 -0.2178,0 -0.4347,0 -0.652,0 -0.2174,0 -0.4347,0 -0.652,0 -0.2178,0 -0.4347,0 -0.652,0 -0.2169,0 -0.4347,0 -0.6515,0 -0.2173,0 -0.4351,0 -0.652,0 -0.2173,0 -0.4351,0 -0.6525,0 -0.2168,0 -0.4346,0 -0.6515,0 -0.2173,0 -0.4346,0 -0.652,0 -0.2173,0 -0.4082,-0.0274 -0.5709,-0.0816 -0.1631,-0.0537 -0.2984,-0.1344 -0.4073,-0.2423 -0.1089,-0.1075 -0.2442,-0.1891 -0.4078,-0.2428 -0.1621,-0.0537 -0.3531,-0.0811 -0.5704,-0.0811 -0.2164,0 -0.4337,0 -0.6515,0 -0.2173,0 -0.4073,-0.0269 -0.5704,-0.0806 C 66.2341,78.1591 66.0979,78.0785 65.9895,77.971 65.8801,77.8626 65.7448,77.7815 65.5821,77.7277 65.419,77.6735 65.2559,77.6202 65.0928,77.5665 64.9302,77.5123 64.7939,77.4312 64.6855,77.3237 64.5771,77.2158 64.4413,77.1351 64.2782,77.0809 64.1151,77.0272 63.9519,76.973 63.7888,76.9188 63.6262,76.865 63.4899,76.7844 63.3815,76.6764 63.2731,76.569 63.1368,76.4874 62.9742,76.4337 62.8111,76.3794 62.648,76.3257 62.4849,76.2724 62.3222,76.2182 62.186,76.1371 62.0775,76.0296 c -0.1084,-0.1079 -0.2173,-0.2163 -0.3252,-0.3238 -0.1094,-0.1075 -0.2178,-0.215 -0.3267,-0.3234 -0.1085,-0.108 -0.2174,-0.2155 -0.3263,-0.3234 -0.1084,-0.1085 -0.2168,-0.2159 -0.3253,-0.3239 -0.1089,-0.1075 -0.2178,-0.2154 -0.3267,-0.3239 -0.1079,-0.1075 -0.2168,-0.2149 -0.3252,-0.3229 -0.1089,-0.108 -0.2178,-0.2159 -0.3267,-0.3234 -0.108,-0.1084 -0.2169,-0.2159 -0.3253,-0.3234 -0.1089,-0.108 -0.2178,-0.2159 -0.3258,-0.3239 -0.1089,-0.1075 -0.2178,-0.2154 -0.3262,-0.3238 -0.1089,-0.1075 -0.2178,-0.2155 -0.3258,-0.3234 -0.1089,-0.108 -0.2178,-0.216 -0.3262,-0.323 -0.1089,-0.1079 -0.2178,-0.2164 -0.3258,-0.3238 -0.1089,-0.108 -0.1909,-0.2428 -0.2446,-0.4045 -0.0542,-0.1617 -0.1085,-0.3239 -0.1631,-0.4851 -0.0543,-0.1617 -0.1358,-0.297 -0.2442,-0.405 -0.1089,-0.1075 -0.2178,-0.2154 -0.3263,-0.3234 -0.1089,-0.1075 -0.2168,-0.215 -0.3257,-0.3229 -0.1089,-0.1084 -0.191,-0.2428 -0.2447,-0.405 -0.0542,-0.1612 -0.0816,-0.3502 -0.0816,-0.5662 0,-0.2154 -0.0268,-0.404 -0.0815,-0.5661 -0.0542,-0.1617 -0.1353,-0.297 -0.2442,-0.4041 -0.1089,-0.1079 -0.19,-0.2427 -0.2447,-0.4049 -0.0542,-0.1617 -0.0815,-0.3503 -0.0815,-0.5662 0,-0.2154 -0.0269,-0.4035 -0.0816,-0.5662 -0.0542,-0.1612 -0.1353,-0.296 -0.2442,-0.404 -0.1089,-0.108 -0.19,-0.2428 -0.2447,-0.404 -0.0542,-0.1622 -0.0811,-0.3508 -0.0811,-0.5662 0,-0.2164 0,-0.4318 0,-0.6473 0,-0.2159 0,-0.4318 0,-0.6472 0,-0.216 0,-0.4314 0,-0.6468 0,-0.216 0,-0.4319 0,-0.6473 0,-0.2155 0,-0.4318 0,-0.6473 0,-0.2154 0,-0.4313 0,-0.6468 0,-0.2159 0,-0.4313 0,-0.6473 0,-0.2154 0,-0.4308 0,-0.6472 0,-0.2155 0,-0.4309 0,-0.6464 0,-0.2163 0.0269,-0.4049 0.0811,-0.5666 0.0547,-0.1617 0.1358,-0.2965 0.2447,-0.4045 0.1089,-0.1075 0.19,-0.2428 0.2442,-0.404 0.0547,-0.1622 0.0816,-0.3508 0.0816,-0.5662 0,-0.2164 0.0273,-0.4045 0.0815,-0.5662 0.0547,-0.1622 0.1358,-0.297 0.2447,-0.4049 0.1089,-0.1075 0.19,-0.2424 0.2442,-0.4041 0.0547,-0.1621 0.1089,-0.3234 0.1631,-0.4851 0.0537,-0.1621 0.1358,-0.2965 0.2447,-0.4044 0.1089,-0.1085 0.2168,-0.216 0.3257,-0.3239 0.1085,-0.1075 0.2174,-0.2155 0.3263,-0.3234 0.1084,-0.1075 0.1899,-0.2428 0.2442,-0.4045 0.0546,-0.1617 0.1089,-0.3234 0.1631,-0.4851 0.0537,-0.1617 0.1357,-0.2965 0.2446,-0.4045 0.108,-0.1079 0.2169,-0.2154 0.3258,-0.3232 0.1084,-0.1083 0.2173,-0.2161 0.3262,-0.3239 0.108,-0.1077 0.2169,-0.2155 0.3258,-0.3233 0.1084,-0.1077 0.2173,-0.216 0.3262,-0.3238 0.108,-0.1077 0.2169,-0.2157 0.3258,-0.3233 0.1084,-0.108 0.2173,-0.2158 0.3253,-0.3237 0.1089,-0.1078 0.2178,-0.2156 0.3267,-0.3235 0.1084,-0.1078 0.2442,-0.1886 0.4073,-0.2428 0.1626,-0.0538 0.3257,-0.1076 0.4888,-0.1616 0.1632,-0.0539 0.2989,-0.1348 0.4074,-0.2428 0.1089,-0.1078 0.2173,-0.2155 0.3267,-0.3234 0.1079,-0.1078 0.2168,-0.2157 0.3252,-0.3235 0.1085,-0.1078 0.2447,-0.1888 0.4074,-0.2426 0.1631,-0.0539 0.3535,-0.0809 0.5704,-0.0809 0.2178,0 0.4078,-0.027 0.5709,-0.0808 0.1626,-0.054 0.2989,-0.1348 0.4068,-0.2428 0.1094,-0.1078 0.2452,-0.1887 0.4083,-0.2426 0.1626,-0.054 0.3526,-0.081 0.5699,-0.081 0.2178,0 0.4078,-0.0269 0.5709,-0.0808 0.1627,-0.054 0.298,-0.1348 0.4074,-0.2426 0.1084,-0.1079 0.2446,-0.1888 0.4073,-0.2427 0.1631,-0.0539 0.3531,-0.0809 0.5704,-0.0809 0.2178,0 0.4351,0 0.6515,0 0.2173,0 0.4351,0 0.6525,0 0.2168,0 0.4346,0 0.652,0 0.2168,0 0.4346,0 0.6519,0 0.2174,0 0.4347,0 0.652,0 0.2169,0 0.4078,0.027 0.57,0.0809 0.1631,0.0539 0.2989,0.1348 0.4078,0.2427 0.1089,0.1078 0.2442,0.1886 0.4073,0.2426 0.1626,0.0539 0.3536,0.0808 0.5709,0.0808 0.2168,0 0.4068,0.027 0.5699,0.081 0.1632,0.0539 0.2989,0.1348 0.4078,0.2426 0.108,0.108 0.2442,0.1888 0.4073,0.2428 0.1627,0.0538 0.3258,0.1078 0.4889,0.1617 0.1631,0.0538 0.2989,0.1348 0.4078,0.2426 0.108,0.1078 0.2442,0.1888 0.4068,0.2426 0.1636,0.0539 0.3263,0.1079 0.4894,0.1617 0.1626,0.054 0.2989,0.1348 0.4068,0.2426 0.1094,0.108 0.2178,0.2158 0.3267,0.3238 0.1085,0.1077 0.2174,0.2156 0.3253,0.3234 0.1089,0.1079 0.2178,0.2157 0.3267,0.3235 0.1084,0.1079 0.2169,0.2157 0.3253,0.3237 0.1089,0.1076 0.2178,0.2156 0.3262,0.3233 0.1089,0.1078 0.2174,0.2161 0.3267,0.3238 0.108,0.1078 0.2169,0.2156 0.3253,0.3233 0.1084,0.1078 0.1905,0.2429 0.2447,0.4048 0.0542,0.1612 0.1089,0.3234 0.1626,0.4851 0.0542,0.1617 0.1363,0.2965 0.2447,0.4045 0.1089,0.1075 0.1905,0.2423 0.2447,0.404 0.0537,0.1622 0.1089,0.3234 0.1631,0.4851 0.0542,0.1622 0.1358,0.2965 0.2437,0.405 0.1094,0.1079 0.1909,0.2423 0.2452,0.4044 0.0542,0.1617 0.081,0.3503 0.081,0.5658 0,0.2159 0,0.4313 0,0.6472 0,0.2155 0.0269,0.4045 0.0821,0.5662 0.0537,0.1622 0.1357,0.2965 0.2442,0.4045 0.1089,0.108 0.19,0.2428 0.2446,0.404 0.0543,0.1622 0.0811,0.3508 0.0811,0.5662 0,0.2159 0,0.4314 0,0.6477 0,0.2155 -0.0268,0.4041 -0.0811,0.5658 -0.0546,0.1617 -0.1357,0.297 -0.2446,0.4044 -0.1085,0.108 -0.1905,0.2424 -0.2442,0.4045 -0.0552,0.1617 -0.0821,0.3503 -0.0821,0.5662 0,0.2155 -0.0268,0.4045 -0.081,0.5662 -0.0543,0.1617 -0.1358,0.2961 -0.2452,0.404 -0.1079,0.1084 -0.1895,0.2428 -0.2437,0.405 -0.0542,0.1612 -0.1094,0.3229 -0.1631,0.4851 -0.0542,0.1617 -0.1358,0.2965 -0.2447,0.404 -0.1084,0.1079 -0.1905,0.2432 -0.2447,0.4049 -0.0537,0.1613 -0.1084,0.3234 -0.1626,0.4851 -0.0542,0.1622 -0.1363,0.2966 -0.2447,0.4045 -0.1084,0.1075 -0.2173,0.2155 -0.3253,0.3239 -0.1093,0.1075 -0.2178,0.2154 -0.3267,0.3229 -0.1084,0.108 -0.2173,0.2159 -0.3262,0.3239 -0.1084,0.108 -0.2442,0.189 -0.4068,0.2423 -0.1632,0.0542 -0.3263,0.108 -0.4889,0.1617 -0.1636,0.0547 -0.2989,0.1348 -0.4083,0.2433 -0.1079,0.1075 -0.2442,0.1881 -0.4068,0.2428 -0.1631,0.0537 -0.3258,0.1074 -0.4894,0.1612 -0.1626,0.0537 -0.2988,0.1348 -0.4068,0.2423 -0.1089,0.108 -0.2447,0.189 -0.4078,0.2433 -0.1631,0.0532 -0.3531,0.0806 -0.5704,0.0806 -0.2178,0 -0.4347,0 -0.652,0 -0.2169,0 -0.4078,-0.0274 -0.5709,-0.0806 -0.1626,-0.0543 -0.2437,-0.1353 -0.2437,-0.2433 0,-0.1075 0.0811,-0.1886 0.2437,-0.2423 0.1631,-0.0538 0.3262,-0.1075 0.4893,-0.1612 0.1632,-0.0547 0.2989,-0.1353 0.4078,-0.2428 0.108,-0.1085 0.2442,-0.1886 0.4073,-0.2433 0.1627,-0.0537 0.3258,-0.1075 0.4889,-0.1617 0.1631,-0.0533 0.2989,-0.1343 0.4078,-0.2423 0.108,-0.108 0.2169,-0.2159 0.3258,-0.3239 0.1084,-0.1075 0.2173,-0.2154 0.3262,-0.3229 0.1079,-0.1084 0.2173,-0.2164 0.3257,-0.3239 0.1085,-0.1079 0.19,-0.2423 0.2442,-0.4045 0.0543,-0.1617 0.1089,-0.3238 0.1632,-0.4851 0.0542,-0.1617 0.1357,-0.297 0.2446,-0.4049 0.1085,-0.1075 0.19,-0.2423 0.2442,-0.404 0.0552,-0.1622 0.1089,-0.3239 0.1631,-0.4851 0.0538,-0.1622 0.1358,-0.2966 0.2447,-0.405 0.1084,-0.1079 0.19,-0.2423 0.2442,-0.404 0.0542,-0.1617 0.0811,-0.3507 0.0811,-0.5662 0,-0.2159 0,-0.4313 0,-0.6473 0,-0.2154 0,-0.4308 0,-0.6472 0,-0.2155 -0.0269,-0.404 -0.0811,-0.5662 -0.0542,-0.1612 -0.1358,-0.2965 -0.2442,-0.404 -0.1089,-0.108 -0.1909,-0.2428 -0.2447,-0.4045 -0.0542,-0.1617 -0.082,-0.3503 -0.082,-0.5662 0,-0.2154 -0.0259,-0.4045 -0.0811,-0.5657 C 76.2845,57.1838 76.203,57.0485 76.0945,56.9415 75.9856,56.8331 75.9041,56.6987 75.8499,56.5365 75.7956,56.3748 75.741,56.2136 75.6867,56.0514 75.6325,55.8897 75.551,55.7549 75.4425,55.6474 75.3341,55.539 75.2247,55.431 75.1168,55.3236 75.0079,55.2156 74.899,55.1081 74.7906,55.0002 74.6817,54.8917 74.5728,54.7842 74.4648,54.6763 74.3559,54.5688 74.247,54.4608 74.1386,54.3529 74.0297,54.2454 73.9212,54.137 73.8123,54.029 73.7039,53.9215 73.5681,53.8404 73.405,53.7867 73.2419,53.733 73.0793,53.6787 72.9162,53.625 72.753,53.5713 72.6177,53.4906 72.5088,53.3827 72.3999,53.2743 72.2637,53.1936 72.1011,53.1399 71.9379,53.0857 71.7748,53.0319 71.6122,52.9777 71.4491,52.924 71.3138,52.8434 71.2049,52.7356 71.096,52.6273 70.9602,52.5463 70.7971,52.4927 c -0.1622,-0.0541 -0.3531,-0.081 -0.57,-0.081 -0.2173,0 -0.4346,0 -0.652,0 -0.2173,0 -0.4351,0 -0.6519,0 -0.2174,0 -0.4352,0 -0.652,0 -0.2174,0 -0.4073,0.0269 -0.5705,0.081 -0.1635,0.0536 -0.2984,0.1346 -0.4077,0.2429 -0.108,0.1078 -0.2438,0.1884 -0.4069,0.2421 -0.164,0.0542 -0.3531,0.0811 -0.5709,0.0811 -0.2173,0 -0.4073,0.0269 -0.5704,0.0811 -0.1627,0.0537 -0.2989,0.1344 -0.4078,0.2428 -0.108,0.1079 -0.2442,0.1886 -0.4068,0.2423 -0.1632,0.0537 -0.3263,0.108 -0.4889,0.1617 -0.1631,0.0537 -0.2989,0.1348 -0.4083,0.2423 -0.1079,0.108 -0.2168,0.2164 -0.3257,0.3239 -0.108,0.1079 -0.2174,0.2159 -0.3258,0.3234 -0.1084,0.1079 -0.2447,0.1886 -0.4073,0.2428 -0.1631,0.0537 -0.3262,0.1079 -0.4893,0.1621 -0.1627,0.0533 -0.2716,0.1613 -0.3258,0.3234 -0.0542,0.1617 -0.1089,0.323 -0.1626,0.4851 -0.0552,0.1617 -0.1363,0.2966 -0.2442,0.4041 -0.1094,0.1079 -0.2178,0.2163 -0.3267,0.3238 -0.1085,0.108 -0.2174,0.2155 -0.3263,0.3239 -0.1084,0.107 -0.19,0.2423 -0.2442,0.4045 -0.0542,0.1612 -0.1089,0.3229 -0.1631,0.4851 -0.0537,0.1612 -0.1358,0.2965 -0.2447,0.404 -0.1079,0.108 -0.1899,0.2428 -0.2442,0.4045 -0.0542,0.1617 -0.081,0.3503 -0.081,0.5666 0,0.2155 -0.0279,0.4041 -0.0816,0.5658 -0.0542,0.1617 -0.1362,0.297 -0.2451,0.4044 -0.108,0.108 -0.19,0.2424 -0.2442,0.4045 -0.0543,0.1617 -0.0811,0.3503 -0.0811,0.5662 0,0.2155 0,0.4314 0,0.6468 0,0.2155 0,0.4318 0,0.6473 0,0.2154 0,0.4313 0,0.6473 0,0.2154 0,0.4308 0,0.6468 0,0.2154 0.0268,0.4044 0.0811,0.5661 0.0542,0.1622 0.1362,0.2966 0.2442,0.4045 0.1089,0.1075 0.1909,0.2428 0.2451,0.4045 0.0537,0.1617 0.0816,0.3503 0.0816,0.5662 0,0.2154 0.0268,0.404 0.081,0.5662 0.0543,0.1612 0.1363,0.2965 0.2442,0.4045 0.1089,0.1075 0.191,0.2423 0.2447,0.404 0.0542,0.1622 0.1089,0.3234 0.1631,0.4851 0.0542,0.1622 0.1358,0.297 0.2442,0.4049 0.1089,0.1071 0.19,0.2424 0.2447,0.4041 0.0542,0.1621 0.1094,0.3234 0.1631,0.4855 0.0542,0.1617 0.1358,0.2966 0.2452,0.404 0.1079,0.108 0.2168,0.216 0.3252,0.3239 0.1085,0.108 0.2178,0.2155 0.3258,0.3239 0.1089,0.1079 0.2178,0.2154 0.3262,0.3229 0.1089,0.108 0.2174,0.2159 0.3258,0.3234 0.1089,0.108 0.2178,0.2164 0.3262,0.3239 0.1084,0.1079 0.2178,0.2159 0.3258,0.3234 0.1089,0.1079 0.2178,0.2154 0.3257,0.3234 0.1094,0.1084 0.2178,0.2159 0.3263,0.3239 0.1089,0.1074 0.2178,0.2159 0.3262,0.3238 0.1084,0.107 0.2447,0.1886 0.4073,0.2423 0.1631,0.0543 0.3262,0.1075 0.4893,0.1617 0.1627,0.0538 0.298,0.1349 0.4074,0.2424 0.1084,0.1084 0.2446,0.189 0.4073,0.2427 0.1631,0.0543 0.3253,0.108 0.4893,0.1622 0.1631,0.0538 0.2989,0.1348 0.4069,0.2428 0.1093,0.1075 0.2442,0.1881 0.4077,0.2423 0.1632,0.0538 0.3531,0.0811 0.5705,0.0811 0.2168,0 0.4346,0 0.652,0 0.2168,0 0.4068,0.0269 0.5699,0.0811 0.1631,0.0533 0.2994,0.1343 0.4078,0.2423 0.1089,0.108 0.2442,0.1886 0.4073,0.2423 0.1631,0.0547 0.3536,0.0806 0.5704,0.0806 0.2174,0 0.4352,0 0.6525,0 0.2169,0 0.4347,0 0.652,0 0.2168,0 0.4346,0 0.6515,0 0.2173,0 0.4342,0 0.652,0 0.2173,0 0.4346,0 0.652,0 0.2173,0 0.4073,-0.0259 0.5704,-0.0806 0.1626,-0.0537 0.2989,-0.1343 0.4078,-0.2423 0.1079,-0.108 0.2442,-0.189 0.4068,-0.2423 0.1631,-0.0542 0.3536,-0.0811 0.5709,-0.0811 0.2174,0 0.4342,0 0.652,0 0.2169,0 0.4073,-0.0273 0.57,-0.0811 0.1631,-0.0542 0.2989,-0.1348 0.4082,-0.2423 0.108,-0.108 0.2438,-0.189 0.4069,-0.2428 0.1631,-0.0542 0.3257,-0.1079 0.4893,-0.1622 0.1631,-0.0537 0.2989,-0.1343 0.4069,-0.2427 0.1093,-0.1075 0.2446,-0.1886 0.4077,-0.2424 0.1632,-0.0542 0.3263,-0.1074 0.4889,-0.1617 0.1631,-0.0537 0.2989,-0.1353 0.4073,-0.2423 0.1089,-0.1079 0.2447,-0.189 0.4078,-0.2428 0.1627,-0.0542 0.3258,-0.1079 0.4889,-0.1621 0.1631,-0.0542 0.2993,-0.1344 0.4073,-0.2428 0.1089,-0.108 0.2178,-0.2155 0.3258,-0.3234 0.1089,-0.1075 0.2173,-0.2155 0.3262,-0.3234 0.1089,-0.1075 0.2178,-0.2159 0.3257,-0.3239 0.1094,-0.1075 0.2174,-0.2154 0.3263,-0.3234 0.1089,-0.1075 0.2168,-0.215 0.3262,-0.3229 0.1084,-0.1084 0.2169,-0.2159 0.3258,-0.3239 0.1089,-0.1079 0.2178,-0.2159 0.3257,-0.3239 0.1089,-0.1074 0.2173,-0.2154 0.3262,-0.3234 0.1089,-0.1079 0.2174,-0.2154 0.3258,-0.3229 0.1089,-0.1084 0.1905,-0.2432 0.2442,-0.4049 0.0547,-0.1613 0.1089,-0.3234 0.1631,-0.4851 0.0547,-0.1622 0.1358,-0.2966 0.2447,-0.4045 0.1089,-0.108 0.2173,-0.2159 0.3257,-0.3239 0.1094,-0.1075 0.2174,-0.2154 0.3263,-0.3229 0.1089,-0.108 0.19,-0.2433 0.2442,-0.4045 0.0547,-0.1622 0.1093,-0.3239 0.1631,-0.4856 0.0547,-0.1617 0.1358,-0.2965 0.2447,-0.4045 0.1089,-0.1075 0.1899,-0.2423 0.2442,-0.404 0.0546,-0.1622 0.082,-0.3507 0.082,-0.5662 0,-0.2159 0.0269,-0.4049 0.0811,-0.5662 0.0547,-0.1617 0.1362,-0.297 0.2446,-0.4049 0.1089,-0.1075 0.19,-0.2423 0.2442,-0.404 0.0547,-0.1622 0.0816,-0.3508 0.0816,-0.5662 0,-0.2155 0,-0.4318 0,-0.6473 0,-0.2154 0.0273,-0.404 0.0816,-0.5662 0.0546,-0.1612 0.1357,-0.2965 0.2446,-0.404 0.1089,-0.1079 0.19,-0.2428 0.2442,-0.4049 0.0547,-0.1613 0.0816,-0.3498 0.0816,-0.5662 0,-0.2155 0,-0.4309 0,-0.6464 0,-0.2163 0,-0.4318 0,-0.6477 0,-0.2154 0,-0.4309 0,-0.6468 0,-0.2154 0,-0.4314 0,-0.6468 0,-0.2164 0,-0.4318 0,-0.6473 0,-0.2159 0,-0.4313 0,-0.6472 0,-0.2155 -0.0269,-0.4041 -0.0816,-0.5658 -0.0542,-0.1621 -0.1353,-0.2965 -0.2442,-0.4044 -0.1089,-0.1085 -0.19,-0.2428 -0.2446,-0.405 -0.0543,-0.1617 -0.0816,-0.3498 -0.0816,-0.5662 0,-0.2154 0,-0.4309 0,-0.6463 0,-0.2159 -0.0269,-0.405 -0.0816,-0.5662 -0.0542,-0.1619 -0.1353,-0.297 -0.2442,-0.4048 -0.1084,-0.1077 -0.1899,-0.2428 -0.2446,-0.4042 -0.0542,-0.1619 -0.0811,-0.3506 -0.0811,-0.5662 0,-0.2158 -0.0274,-0.4045 -0.082,-0.5663 -0.0543,-0.1618 -0.1353,-0.2966 -0.2442,-0.4043 -0.1089,-0.108 -0.19,-0.2428 -0.2447,-0.4044 -0.0538,-0.162 -0.1084,-0.3237 -0.1631,-0.4854 -0.0542,-0.1618 -0.1353,-0.2966 -0.2442,-0.4044 -0.1089,-0.1079 -0.19,-0.2428 -0.2447,-0.4046 -0.0542,-0.1616 -0.1084,-0.3234 -0.1631,-0.4853 -0.0542,-0.1616 -0.1353,-0.2964 -0.2442,-0.4043 -0.1089,-0.1078 -0.19,-0.2426 -0.2447,-0.4044 -0.0542,-0.1616 -0.1084,-0.3235 -0.1631,-0.4853 -0.0537,-0.1616 -0.1353,-0.2964 -0.2442,-0.4044 -0.1084,-0.1077 -0.2169,-0.2157 -0.3258,-0.3235 -0.1089,-0.1078 -0.2173,-0.2158 -0.3262,-0.3234 -0.1079,-0.108 -0.19,-0.2428 -0.2442,-0.4046 C 83.6185,45.375 83.5648,45.2133 83.5096,45.0515 83.4554,44.8897 83.3743,44.7549 83.2659,44.6469 83.1565,44.5391 83.0486,44.4313 82.9397,44.3235 82.8308,44.2158 82.7228,44.1078 82.6134,44 c -0.1079,-0.1078 -0.2168,-0.2157 -0.3257,-0.3236 -0.1089,-0.1077 -0.2173,-0.2155 -0.3262,-0.3235 -0.108,-0.1078 -0.2169,-0.2156 -0.3258,-0.3235 -0.108,-0.1079 -0.2173,-0.2157 -0.3258,-0.3234 -0.1084,-0.108 -0.2173,-0.2158 -0.3262,-0.3237 -0.1084,-0.1078 -0.2442,-0.1886 -0.4073,-0.2426 -0.1631,-0.0539 -0.3258,-0.1078 -0.4889,-0.1618 -0.1631,-0.054 -0.2989,-0.1348 -0.4078,-0.2426 -0.1084,-0.1078 -0.2168,-0.2157 -0.3262,-0.3236 -0.1079,-0.1079 -0.2164,-0.2155 -0.3257,-0.3234 -0.108,-0.1079 -0.2438,-0.1888 -0.4069,-0.2426 -0.1636,-0.0542 -0.3262,-0.108 -0.4893,-0.162 -0.1631,-0.0538 -0.2989,-0.1348 -0.4069,-0.2424 -0.1093,-0.108 -0.2451,-0.1889 -0.4082,-0.2428 -0.1627,-0.054 -0.3258,-0.1077 -0.4889,-0.1617 -0.1626,-0.054 -0.2989,-0.1348 -0.4078,-0.2428 -0.1079,-0.1077 -0.2437,-0.1886 -0.4073,-0.2426 -0.1626,-0.0537 -0.3258,-0.1077 -0.4889,-0.1617 -0.1626,-0.0538 -0.2989,-0.1348 -0.4068,-0.2426 -0.1089,-0.108 -0.2452,-0.1888 -0.4078,-0.2427 -0.1631,-0.0539 -0.3531,-0.0808 -0.5704,-0.0808 -0.2174,0 -0.4078,-0.0272 -0.5705,-0.081 C 73.405,38.6887 73.2688,38.6078 73.1608,38.5 73.0519,38.3921 72.9162,38.3113 72.753,38.2573 c -0.1631,-0.0539 -0.3531,-0.0808 -0.5699,-0.0808 -0.2173,0 -0.4351,0 -0.652,0 -0.2173,0 -0.4351,0 -0.6525,0 -0.2168,0 -0.4346,0 -0.6515,0 -0.2173,0 -0.4073,-0.027 -0.5709,-0.0808 -0.1631,-0.054 -0.2984,-0.1349 -0.4073,-0.2428 -0.1089,-0.1078 -0.2447,-0.1888 -0.4078,-0.2426 -0.1631,-0.0539 -0.3531,-0.081 -0.5699,-0.081 -0.2174,0 -0.4352,0 -0.6525,0 -0.2164,0 -0.4337,0 -0.6515,0 -0.2173,0 -0.4342,0 -0.652,0 -0.2173,0 -0.4351,0 -0.652,0 -0.2173,0 -0.4073,0.0271 -0.5704,0.081 -0.1626,0.0538 -0.2989,0.1348 -0.4073,0.2426 -0.1084,0.1079 -0.2442,0.1888 -0.4073,0.2428 -0.1631,0.0538 -0.3531,0.0808 -0.5709,0.0808 -0.2174,0 -0.4342,0 -0.652,0 -0.2169,0 -0.4342,0 -0.652,0 -0.2173,0 -0.4342,0 -0.651,0 -0.2178,0 -0.4083,0.0269 -0.5709,0.0808 -0.1632,0.054 -0.2989,0.1348 -0.4074,0.2427 -0.1089,0.1078 -0.2446,0.1887 -0.4077,0.2426 -0.1632,0.0538 -0.3531,0.081 -0.5709,0.081 -0.2169,0 -0.4342,0 -0.6511,0 -0.2178,0 -0.4078,0.0269 -0.5709,0.0808 -0.1631,0.0539 -0.2989,0.1347 -0.4073,0.2427 -0.1089,0.1078 -0.2447,0.1888 -0.4078,0.2426 -0.1626,0.054 -0.3257,0.108 -0.4889,0.1617 -0.1631,0.054 -0.2988,0.1349 -0.4073,0.2426 -0.1089,0.108 -0.2446,0.1888 -0.4078,0.2428 -0.1626,0.054 -0.3531,0.0808 -0.5699,0.0808 -0.2178,0 -0.4078,0.0269 -0.5709,0.0809 -0.1627,0.0539 -0.2989,0.1348 -0.4069,0.2428 -0.1089,0.1076 -0.2173,0.2154 -0.3262,0.3234 -0.1089,0.1078 -0.2178,0.2157 -0.3257,0.3236 -0.1094,0.1079 -0.2452,0.1887 -0.4074,0.2426 -0.1635,0.0539 -0.3267,0.1079 -0.4898,0.1618 -0.1621,0.0538 -0.2984,0.1348 -0.4068,0.2426 -0.1089,0.1078 -0.2173,0.2158 -0.3262,0.3234 -0.1089,0.108 -0.2169,0.2158 -0.3263,0.3236 -0.1084,0.1079 -0.2446,0.1889 -0.4068,0.2427 -0.1631,0.0539 -0.3267,0.1078 -0.4889,0.1616 -0.1631,0.0541 -0.2989,0.1349 -0.4077,0.2428 -0.1088,0.1079 -0.2175,0.2157 -0.3263,0.3235 -0.1081,0.108 -0.2169,0.2158 -0.3257,0.3235 -0.1087,0.1079 -0.2175,0.2158 -0.3257,0.3236 -0.1093,0.1078 -0.2175,0.2158 -0.3262,0.3235 -0.1088,0.1078 -0.2176,0.2156 -0.3263,0.3234 -0.1088,0.108 -0.217,0.2158 -0.3257,0.3238 -0.1088,0.1078 -0.2176,0.2155 -0.3263,0.3234 -0.1082,0.1079 -0.2169,0.2157 -0.3257,0.3235 -0.1087,0.1079 -0.2175,0.2157 -0.3262,0.3237 -0.1082,0.1076 -0.217,0.2156 -0.3258,0.3234 -0.1085,0.1078 -0.2173,0.2158 -0.3258,0.3235 -0.1089,0.108 -0.2174,0.2157 -0.3261,0.3236 -0.1086,0.1078 -0.2173,0.2155 -0.326,0.3235 -0.1087,0.1078 -0.2172,0.2158 -0.3261,0.3234 -0.1085,0.108 -0.2171,0.2158 -0.3258,0.3236 -0.1087,0.1079 -0.1903,0.2427 -0.2445,0.4043 -0.0543,0.1619 -0.1087,0.3237 -0.163,0.4853 -0.0543,0.1618 -0.1358,0.2967 -0.2444,0.4046 -0.1087,0.1078 -0.2174,0.2157 -0.3261,0.3235 -0.1086,0.1078 -0.2173,0.2157 -0.3258,0.3235 -0.1087,0.1079 -0.1903,0.2428 -0.2447,0.4044 -0.0543,0.1618 -0.1084,0.3234 -0.1628,0.4853 -0.0545,0.1618 -0.1359,0.2966 -0.2445,0.4044 -0.1088,0.1079 -0.1902,0.2427 -0.2445,0.4045 -0.0544,0.1616 -0.1087,0.3235 -0.163,0.4854 -0.0544,0.1614 -0.1358,0.2965 -0.2445,0.4042 -0.1085,0.1078 -0.1901,0.2429 -0.2444,0.4048 -0.0544,0.1612 -0.1087,0.3234 -0.163,0.4851 -0.0544,0.1617 -0.1358,0.2965 -0.2445,0.4045 -0.1087,0.1075 -0.1901,0.2423 -0.2445,0.404 -0.0543,0.1622 -0.0815,0.3507 -0.0815,0.5662 0,0.2159 -0.0273,0.4049 -0.0815,0.5662 -0.0543,0.1621 -0.1357,0.2965 -0.2446,0.4049 -0.1085,0.1075 -0.1899,0.2423 -0.2444,0.404 -0.0542,0.1622 -0.0815,0.3503 -0.0815,0.5662 0,0.2155 -0.027,0.4045 -0.0814,0.5662 -0.0543,0.1622 -0.1359,0.2965 -0.2444,0.4045 -0.1089,0.108 -0.1903,0.2428 -0.2446,0.404 -0.0542,0.1622 -0.0814,0.3508 -0.0814,0.5662 0,0.2159 0,0.4314 0,0.6477 0,0.2155 0,0.4309 0,0.6464 0,0.2164 0,0.4318 0,0.6472 0,0.216 0,0.4314 0,0.6473 0,0.2155 -0.0273,0.4045 -0.0816,0.5662 -0.0542,0.1617 -0.1358,0.2961 -0.2445,0.404 -0.1087,0.1084 -0.1901,0.2428 -0.2444,0.405 -0.0543,0.1612 -0.0815,0.3502 -0.0815,0.5662 0,0.2154 0,0.4308 0,0.6468 0,0.2154 0,0.4313 0,0.6472 0,0.2155 0.0272,0.404 0.0815,0.5662 0.0543,0.1617 0.1357,0.2965 0.2444,0.404 0.1087,0.108 0.1903,0.2428 0.2445,0.4045 0.0543,0.1617 0.0816,0.3508 0.0816,0.5667 0,0.2154 0,0.4309 0,0.6463 0,0.2159 0,0.4318 0,0.6473 0,0.2159 0,0.4309 0,0.6472 0,0.2155 0,0.4314 0,0.6468 0,0.216 0,0.4314 0,0.6473 0,0.2155 0,0.4318 0,0.6468 0,0.2159 0.0272,0.4045 0.0814,0.5667 0.0543,0.1617 0.1357,0.2965 0.2446,0.404 0.1085,0.1079 0.1901,0.2428 0.2444,0.4045 0.0544,0.1617 0.0814,0.3502 0.0814,0.5666 0,0.215 0,0.4309 0,0.6464 0,0.2163 0.0273,0.4049 0.0815,0.5661 0.0545,0.1627 0.1359,0.2966 0.2444,0.405 0.1089,0.1075 0.1903,0.2428 0.2446,0.404 0.0542,0.1617 0.0815,0.3508 0.0815,0.5662 0,0.2154 0.0272,0.4045 0.0815,0.5662 0.0544,0.1622 0.1358,0.297 0.2445,0.4045 0.1087,0.1075 0.1901,0.2428 0.2445,0.4045 0.0543,0.1621 0.0816,0.3507 0.0816,0.5661 0,0.2155 0.027,0.4045 0.0814,0.5662 0.0543,0.1622 0.1359,0.2966 0.2444,0.4045 0.1087,0.1075 0.1901,0.2428 0.2445,0.404 0.0543,0.1622 0.1086,0.3239 0.163,0.4851 0.0543,0.1627 0.1357,0.297 0.2445,0.4055 0.1086,0.1074 0.19,0.2423 0.2445,0.4035 0.0544,0.1622 0.1085,0.3239 0.1628,0.4856 0.0544,0.1621 0.136,0.2965 0.2447,0.4045 0.1085,0.1079 0.1901,0.2427 0.2444,0.4044 0.0542,0.1613 0.1085,0.3239 0.163,0.4851 0.0544,0.1617 0.1358,0.2966 0.2445,0.405 0.1086,0.1075 0.2172,0.2154 0.3261,0.3229 0.1084,0.1085 0.2171,0.2164 0.3258,0.3234 0.1087,0.108 0.1903,0.2428 0.2445,0.4045 0.0543,0.1622 0.1086,0.3234 0.163,0.4861 0.0543,0.1612 0.1357,0.296 0.2444,0.4035 0.1087,0.108 0.2174,0.2164 0.326,0.3239 0.1087,0.1079 0.2172,0.2159 0.3261,0.3238 0.1085,0.1075 0.2173,0.2155 0.3258,0.3234 0.1088,0.108 0.2176,0.2155 0.3258,0.3234 0.1087,0.1075 0.1905,0.2428 0.245,0.4041 0.0537,0.1621 0.1081,0.3238 0.1625,0.486 0.0544,0.1617 0.1362,0.2961 0.2444,0.404 0.1087,0.108 0.2175,0.2155 0.3263,0.3239 0.1087,0.1079 0.2169,0.2154 0.3257,0.3229 0.1087,0.108 0.2175,0.2159 0.3263,0.3234 0.1087,0.1084 0.2169,0.2164 0.3262,0.3239 0.1082,0.1079 0.217,0.2159 0.3257,0.3234 0.1088,0.1079 0.2176,0.2154 0.3257,0.3234 0.1088,0.1084 0.2175,0.2159 0.3263,0.3239 0.1088,0.1074 0.2168,0.2159 0.3257,0.3234 0.1089,0.1074 0.2173,0.2154 0.3262,0.3234 0.1084,0.1079 0.2178,0.2159 0.3258,0.3234 0.1089,0.1084 0.2173,0.2163 0.3257,0.3238 0.1094,0.108 0.2174,0.2159 0.3263,0.3239 0.1089,0.1075 0.2173,0.215 0.3262,0.3234 0.1084,0.1075 0.2168,0.2154 0.3257,0.3234 0.1089,0.108 0.2174,0.2154 0.3258,0.3229 0.1089,0.1085 0.2173,0.2164 0.3262,0.3239 0.1089,0.108 0.2169,0.2154 0.3263,0.3239 0.1079,0.1079 0.2168,0.2154 0.3257,0.3234 0.1089,0.1084 0.2173,0.2154 0.3262,0.3234 0.108,0.1075 0.2169,0.2159 0.3258,0.3238 0.1089,0.1075 0.2173,0.2155 0.3258,0.3234 0.1084,0.108 0.2442,0.1891 0.4073,0.2424 0.1631,0.0542 0.3262,0.1079 0.4888,0.1621 0.1632,0.0538 0.2989,0.1344 0.4078,0.2423 0.1085,0.108 0.2174,0.216 0.3263,0.3239 0.1084,0.1075 0.2168,0.2155 0.3257,0.3234 0.1084,0.1075 0.2442,0.1891 0.4073,0.2428 0.1631,0.0542 0.3258,0.1075 0.4889,0.1612 0.1631,0.0542 0.2989,0.1353 0.4078,0.2428 0.1084,0.108 0.2173,0.2164 0.3262,0.3239 0.108,0.1079 0.2169,0.2154 0.3258,0.3239 0.1084,0.1074 0.2442,0.1881 0.4073,0.2423 0.1631,0.0537 0.3257,0.1079 0.4889,0.1612 0.1631,0.0542 0.2988,0.1353 0.4077,0.2433 0.1085,0.1074 0.2442,0.1885 0.4074,0.2423 0.1626,0.0537 0.3257,0.1075 0.4888,0.1617 0.1631,0.0542 0.2989,0.1348 0.4073,0.2428 0.1085,0.1079 0.2447,0.189 0.4074,0.2427 0.1631,0.0538 0.3262,0.108 0.4893,0.1617 0.1626,0.0543 0.2989,0.1349 0.4073,0.2428 0.1084,0.108 0.2447,0.1886 0.4073,0.2423 0.1631,0.0538 0.3263,0.108 0.4894,0.1617 0.1631,0.0543 0.2989,0.1349 0.4073,0.2433 0.1084,0.1075 0.2447,0.1886 0.4073,0.2423 0.1631,0.0538 0.3262,0.1075 0.4893,0.1617 0.1627,0.0538 0.2442,0.1348 0.2442,0.2423 0,0.108 -0.0815,0.1895 -0.2442,0.2428 C 65.419,98.9727 65.229,99 65.0112,99 c -0.2173,0 -0.4351,0 -0.6519,0 -0.2169,0 -0.4342,0 -0.652,0 -0.2174,0 -0.4073,-0.0273 -0.5705,-0.0811 -0.1626,-0.0533 -0.2984,-0.1348 -0.4073,-0.2428 -0.1084,-0.1075 -0.2446,-0.1885 -0.4073,-0.2423 -0.1631,-0.0542 -0.3531,-0.0811 -0.5699,-0.0811 -0.2178,0 -0.4352,0 -0.653,0 -0.2168,0 -0.4073,-0.0268 -0.5699,-0.0806 -0.1631,-0.0537 -0.2989,-0.1348 -0.4073,-0.2423 -0.1089,-0.1084 -0.2447,-0.189 -0.4078,-0.2433 -0.1631,-0.0537 -0.3531,-0.0806 -0.57,-0.0806 -0.2178,0 -0.4078,-0.0273 -0.5709,-0.0811 -0.1631,-0.0537 -0.2989,-0.1343 -0.4073,-0.2423 -0.1089,-0.1079 -0.2447,-0.1885 -0.4078,-0.2428 -0.1626,-0.0537 -0.3531,-0.081 -0.5699,-0.081 -0.2178,0 -0.4078,-0.0269 -0.5709,-0.0807 -0.1632,-0.0537 -0.2989,-0.1348 -0.4074,-0.2427 -0.1089,-0.108 -0.2446,-0.1886 -0.4077,-0.2428 -0.1627,-0.0542 -0.3258,-0.108 -0.4889,-0.1617 -0.1627,-0.0538 -0.2989,-0.1349 -0.4069,-0.2423 -0.1089,-0.108 -0.2451,-0.1891 -0.4082,-0.2433 -0.1627,-0.0533 -0.3258,-0.1075 -0.4889,-0.1612 -0.1622,-0.0542 -0.2984,-0.1349 -0.4073,-0.2423 -0.1084,-0.1085 -0.2447,-0.1891 -0.4068,-0.2428 -0.1636,-0.0542 -0.3267,-0.1085 -0.4889,-0.1627 -0.1631,-0.0532 -0.2989,-0.1343 -0.4083,-0.2423 -0.1084,-0.1075 -0.2168,-0.2154 -0.3257,-0.3229 -0.108,-0.1084 -0.2174,-0.2164 -0.3258,-0.3239 -0.1089,-0.1079 -0.2442,-0.1886 -0.4073,-0.2423 -0.1633,-0.0542 -0.3265,-0.1084 -0.4896,-0.1622 -0.1626,-0.0542 -0.2982,-0.1348 -0.407,-0.2428 -0.1087,-0.1079 -0.2175,-0.2154 -0.3257,-0.3238 -0.1093,-0.107 -0.2175,-0.215 -0.3262,-0.323 -0.1088,-0.1079 -0.2176,-0.2159 -0.3263,-0.3234 -0.1088,-0.1079 -0.217,-0.2163 -0.3257,-0.3238 -0.1088,-0.108 -0.2444,-0.1891 -0.4076,-0.2423 -0.1631,-0.0543 -0.3256,-0.108 -0.4888,-0.1622 C 47.9793,91.7475 47.8437,91.6669 47.7349,91.559 47.6264,91.4505 47.5176,91.3431 47.4091,91.2351 47.3002,91.1276 47.1917,91.0197 47.083,90.9112 46.9744,90.8037 46.8657,90.6963 46.757,90.5883 46.6483,90.4803 46.5398,90.3724 46.4309,90.2649 46.3224,90.1565 46.2138,90.049 46.1051,89.9415 45.9964,89.8335 45.8877,89.7256 45.7793,89.6176 45.6704,89.5101 45.5618,89.4022 45.4532,89.2938 45.3445,89.1863 45.2631,89.051 45.2087,88.8897 45.1542,88.728 45.0999,88.5663 45.0457,88.4046 44.9914,88.2429 44.9098,88.1081 44.8013,87.9997 44.6926,87.8917 44.584,87.7842 44.4752,87.6763 44.3665,87.5688 44.2579,87.4608 44.1493,87.3529 44.0405,87.2454 43.932,87.1374 43.8232,87.029 43.7147,86.9215 43.606,86.8136 43.4973,86.7056 c -0.1085,-0.1075 -0.2174,-0.215 -0.3258,-0.3229 -0.1087,-0.1084 -0.2174,-0.2159 -0.3261,-0.3239 -0.1087,-0.1079 -0.1901,-0.2423 -0.2445,-0.404 -0.0543,-0.1622 -0.1088,-0.3239 -0.163,-0.486 -0.0543,-0.1613 -0.1357,-0.2966 -0.2446,-0.4041 -0.1085,-0.1079 -0.2171,-0.2154 -0.3259,-0.3234 -0.1085,-0.1079 -0.2173,-0.2159 -0.3258,-0.3234 -0.1089,-0.1079 -0.1903,-0.2432 -0.2446,-0.4044 -0.0542,-0.1622 -0.1087,-0.3239 -0.163,-0.4856 -0.0542,-0.1612 -0.1358,-0.2965 -0.2445,-0.404 -0.1087,-0.1085 -0.1901,-0.2433 -0.2444,-0.405 -0.0543,-0.1612 -0.1087,-0.3234 -0.1629,-0.4851 -0.0543,-0.1617 -0.1359,-0.2965 -0.2446,-0.404 -0.1086,-0.1084 -0.1903,-0.2433 -0.2444,-0.405 -0.0544,-0.1612 -0.1087,-0.3238 -0.163,-0.4851 -0.0544,-0.1617 -0.1358,-0.2965 -0.2447,-0.4044 -0.1085,-0.108 -0.1898,-0.2424 -0.2442,-0.4045 -0.0545,-0.1617 -0.1089,-0.3234 -0.1631,-0.4856 -0.0543,-0.1612 -0.1358,-0.2961 -0.2444,-0.4035 -0.1087,-0.1085 -0.1902,-0.2428 -0.2446,-0.4055 -0.0543,-0.1612 -0.0814,-0.3498 -0.0814,-0.5652 0,-0.2164 -0.0271,-0.4045 -0.0816,-0.5662 -0.0544,-0.1622 -0.1358,-0.297 -0.2443,-0.405 -0.1088,-0.1079 -0.1903,-0.2423 -0.2444,-0.4044 -0.0546,-0.1617 -0.0818,-0.3503 -0.0818,-0.5658 0,-0.2163 -0.0271,-0.4049 -0.0814,-0.5661 -0.0544,-0.1622 -0.1358,-0.2966 -0.2445,-0.4045 -0.1085,-0.1085 -0.1901,-0.2423 -0.2444,-0.405 -0.0543,-0.1612 -0.0814,-0.3503 -0.0814,-0.5657 0,-0.2159 0,-0.4318 0,-0.6468 0,-0.2159 -0.0273,-0.405 -0.0816,-0.5667 -0.0543,-0.1612 -0.1358,-0.2965 -0.2444,-0.4044 -0.1087,-0.108 -0.1901,-0.2424 -0.2445,-0.4041 -0.0543,-0.1617 -0.0816,-0.3507 -0.0816,-0.5666 0,-0.2155 0,-0.4309 0,-0.6468 0,-0.2159 0,-0.4314 0,-0.6473 0,-0.215 0,-0.4313 0,-0.6468 0,-0.2159 -0.0271,-0.404 -0.0814,-0.5662 -0.0544,-0.1617 -0.1357,-0.2965 -0.2446,-0.404 C 36.2173,68.4802 36.136,68.3454 36.0814,68.1837 36.0272,68.0224 36,67.8334 36,67.6175 c 0,-0.2155 0,-0.4314 0,-0.6473 0,-0.2154 0,-0.4309 0,-0.6463 0,-0.2159 0,-0.4319 0,-0.6473 0,-0.2159 0,-0.4314 0,-0.6468 0,-0.2164 0,-0.4318 0,-0.6473 0,-0.2159 0,-0.4318 0,-0.6472 0,-0.216 0,-0.4314 0,-0.6468 0,-0.216 0,-0.4319 0,-0.6473 0,-0.2155 0,-0.4318 0,-0.6473 0,-0.2154 0,-0.4313 0,-0.6468 0,-0.2159 0.0272,-0.4045 0.0814,-0.5662 0.0546,-0.1621 0.1359,-0.2965 0.2445,-0.4045 0.1089,-0.1074 0.1902,-0.2427 0.2446,-0.4044 0.0543,-0.1617 0.0814,-0.3503 0.0814,-0.5658 0,-0.2163 0,-0.4318 0,-0.6477 0,-0.2154 0,-0.4309 0,-0.6468 0,-0.2154 0,-0.4314 0,-0.6468 0,-0.2164 0.0273,-0.4045 0.0816,-0.5662 0.0544,-0.1622 0.1358,-0.297 0.2445,-0.4049 0.1086,-0.1075 0.1901,-0.2424 0.2444,-0.4041 0.0543,-0.1621 0.0816,-0.3507 0.0816,-0.5661 0,-0.2155 0.0271,-0.4045 0.0814,-0.5662 0.0543,-0.1622 0.1359,-0.2966 0.2444,-0.4045 0.1087,-0.1075 0.1901,-0.2428 0.2445,-0.4045 0.0543,-0.1617 0.0814,-0.3503 0.0814,-0.5657 0,-0.2159 0.0272,-0.405 0.0818,-0.5662 0.0541,-0.1619 0.1356,-0.297 0.2444,-0.4048 0.1085,-0.1077 0.1899,-0.2428 0.2443,-0.4042 0.0545,-0.1619 0.1087,-0.3238 0.163,-0.4854 0.0544,-0.1618 0.1359,-0.2966 0.2446,-0.4045 0.1086,-0.1078 0.1901,-0.2426 0.2444,-0.4044 0.0542,-0.1619 0.1086,-0.3235 0.1631,-0.4853 0.0544,-0.1616 0.1357,-0.2965 0.2442,-0.4044 0.1089,-0.1078 0.1903,-0.2426 0.2447,-0.4044 0.0543,-0.1617 0.1086,-0.3234 0.163,-0.4854 0.0541,-0.1618 0.1358,-0.2966 0.2444,-0.4044 0.1087,-0.1077 0.1903,-0.2427 0.2446,-0.4043 0.0542,-0.1618 0.1086,-0.3236 0.1629,-0.4853 0.0543,-0.1618 0.1357,-0.2966 0.2444,-0.4044 0.1087,-0.108 0.1903,-0.2427 0.2445,-0.4043 0.0543,-0.1619 0.1088,-0.3237 0.163,-0.4853 0.0543,-0.162 0.1357,-0.2968 0.2446,-0.4044 0.1085,-0.108 0.2173,-0.2158 0.3258,-0.3237 0.1088,-0.1078 0.2174,-0.2156 0.3259,-0.3235 0.1089,-0.1079 0.2174,-0.2156 0.3261,-0.3234 0.1086,-0.108 0.2173,-0.2158 0.326,-0.3238 0.1087,-0.1078 0.1901,-0.2426 0.2445,-0.4043 0.0543,-0.1617 0.1086,-0.3236 0.163,-0.4853 0.0543,-0.1617 0.1359,-0.2964 0.2444,-0.4044 0.1087,-0.1078 0.2174,-0.2156 0.3259,-0.3235 0.1088,-0.1079 0.2173,-0.2157 0.3261,-0.3234 0.1086,-0.108 0.2172,-0.2158 0.3259,-0.3237 0.1088,-0.1078 0.2174,-0.2156 0.3261,-0.3236 0.1085,-0.1076 0.2172,-0.2156 0.3258,-0.3234 0.1087,-0.1078 0.2174,-0.2157 0.3261,-0.3236 0.1086,-0.1079 0.2172,-0.2155 0.3261,-0.3234 0.1084,-0.1079 0.2171,-0.2158 0.3258,-0.3236 0.1087,-0.108 0.2173,-0.2158 0.3258,-0.3234 0.1089,-0.108 0.2447,-0.1889 0.4077,-0.2428 0.1628,-0.054 0.3259,-0.1077 0.4888,-0.1617 0.1631,-0.054 0.299,-0.1348 0.4075,-0.2428 0.1088,-0.1077 0.2176,-0.2155 0.3258,-0.3234 0.1087,-0.1079 0.2175,-0.2157 0.3262,-0.3235 0.1088,-0.108 0.2175,-0.2158 0.3257,-0.3235 0.1087,-0.1079 0.2175,-0.2158 0.3263,-0.3236 0.1087,-0.1079 0.2444,-0.1887 0.4075,-0.2427 0.1626,-0.0539 0.3257,-0.1078 0.4889,-0.1616 0.1631,-0.054 0.2988,-0.1349 0.4075,-0.2428 0.1088,-0.1078 0.2176,-0.2156 0.3257,-0.3236 0.1088,-0.1078 0.2175,-0.2155 0.3263,-0.3234 0.1088,-0.1079 0.2446,-0.1889 0.4077,-0.2426 0.1622,-0.054 0.3258,-0.1079 0.4889,-0.1618 0.1622,-0.054 0.2984,-0.1348 0.4068,-0.2428 0.1094,-0.1076 0.2452,-0.1886 0.4083,-0.2424 0.1622,-0.0542 0.3253,-0.108 0.4889,-0.162 0.1621,-0.0538 0.2984,-0.1348 0.4068,-0.2425 0.1089,-0.108 0.2451,-0.1888 0.4073,-0.2428 0.1631,-0.0538 0.3531,-0.0808 0.5709,-0.0808 0.2173,0 0.4073,-0.0269 0.5704,-0.0808 0.1627,-0.0539 0.2989,-0.1349 0.4074,-0.2427 0.1084,-0.108 0.2442,-0.1886 0.4073,-0.2427 0.1631,-0.0539 0.3262,-0.1079 0.4888,-0.1617 0.1632,-0.054 0.2989,-0.1348 0.4078,-0.2427 0.1085,-0.1078 0.2442,-0.1887 0.4073,-0.2426 0.1632,-0.0539 0.3531,-0.0809 0.5709,-0.0809 0.2169,0 0.4342,0 0.652,0 0.2169,0 0.4069,-0.0269 0.57,-0.0809 0.1631,-0.0539 0.2989,-0.1348 0.4078,-0.2426 0.1084,-0.1079 0.2442,-0.1886 0.4073,-0.2428 0.1631,-0.0538 0.3531,-0.0807 0.5699,-0.0807 0.2178,0 0.4352,0 0.652,0 0.2178,0 0.4352,0 0.653,0 0.2168,0 0.4068,-0.027 0.5699,-0.0809 0.1627,-0.0539 0.2989,-0.1348 0.4073,-0.2427 z"
     fill="url(#paint1_linear_59_457)"
     stroke="url(#paint2_linear_59_457)"
     stroke-width="6"
     id="path2"
     style="mix-blend-mode:normal;fill:#e9e20d;fill-opacity:1;opacity:1" />
  <defs
     id="defs7">
    <linearGradient
       id="paint0_linear_59_457"
       x1="63.5019"
       y1="117.999"
       x2="63.5019"
       y2="43.5717"
       gradientUnits="userSpaceOnUse">
      <stop
         stop-color="#FD3A84"
         id="stop2"
         offset="1"
         style="stop-color:#4c4c4c;stop-opacity:1;" />
      <stop
         offset="1"
         stop-color="#FFA68D"
         id="stop3"
         style="stop-color:#4c4c4c;stop-opacity:1;" />
    </linearGradient>
    <linearGradient
       id="paint1_linear_59_457"
       x1="92.5502"
       y1="33.4184"
       x2="27.8988"
       y2="88.5159"
       gradientUnits="userSpaceOnUse">
      <stop
         stop-color="#FE7970"
         id="stop4"
         offset="1"
         style="stop-color:#e9500d;stop-opacity:1;" />
      <stop
         offset="1"
         stop-color="#DC3282"
         id="stop5"
         style="stop-color:#e9500d;stop-opacity:1;" />
    </linearGradient>
    <linearGradient
       id="paint2_linear_59_457"
       x1="92.5512"
       y1="33.4184"
       x2="27.8988"
       y2="88.5159"
       gradientUnits="userSpaceOnUse">
      <stop
         stop-color="#FE7970"
         id="stop6"
         offset="0" />
      <stop
         offset="0"
         stop-color="#DC3282"
         id="stop7"
         style="stop-color:#e9500d;stop-opacity:1;" />
    </linearGradient>
  </defs>
</svg>
