<?xml version="1.0" encoding="UTF-8" standalone="no"?>
<svg
   width="128"
   height="128"
   viewBox="0 0 128 128"
   fill="none"
   version="1.1"
   id="svg5"
   sodipodi:docname="application-epub+zip.svg"
   inkscape:version="1.3.2 (1:1.3.2+202404261509+091e20ef0f)"
   xmlns:inkscape="http://www.inkscape.org/namespaces/inkscape"
   xmlns:sodipodi="http://sodipodi.sourceforge.net/DTD/sodipodi-0.dtd"
   xmlns="http://www.w3.org/2000/svg"
   xmlns:svg="http://www.w3.org/2000/svg">
  <sodipodi:namedview
     id="namedview5"
     pagecolor="#ffffff"
     bordercolor="#000000"
     borderopacity="0.25"
     inkscape:showpageshadow="2"
     inkscape:pageopacity="0.0"
     inkscape:pagecheckerboard="0"
     inkscape:deskcolor="#d1d1d1"
     inkscape:zoom="9.4140625"
     inkscape:cx="64.053112"
     inkscape:cy="64"
     inkscape:window-width="2560"
     inkscape:window-height="1475"
     inkscape:window-x="0"
     inkscape:window-y="27"
     inkscape:window-maximized="1"
     inkscape:current-layer="svg5" />
  <path
     opacity="0.4"
     d="M11 38C11 22.536 23.536 10 39 10H89C104.464 10 117 22.536 117 38V90C117 105.464 104.464 118 89 118H39C23.536 118 11 105.464 11 90V38Z"
     fill="url(#paint0_linear_275_76)"
     id="path1"
     style="opacity:1" />
  <path
     d="M66.8284 83.1696C65.2663 84.7317 62.7336 84.7317 61.1716 83.1696L44.8221 66.8202C43.2595 65.2576 43.26 62.724 44.8233 61.1621L61.1752 44.8243C62.7361 43.2648 65.265 43.2637 66.8272 44.8219L68.5046 46.495C70.0708 48.0572 70.0716 50.5941 68.5064 52.1573L59.4899 61.1621C57.9261 62.7239 57.9252 65.2579 59.488 66.8208L61.1715 68.5043C62.7336 70.0664 65.2663 70.0664 66.8284 68.5043L83.1776 52.1551C84.7402 50.5924 84.7396 48.0587 83.1762 46.4968L66.8311 30.1678C65.2739 28.6107 62.726 28.6107 61.1689 30.1678L30.1771 61.1594C28.6012 62.7165 28.6012 65.2646 30.1771 66.8406L61.1689 97.8322C62.726 99.3893 65.2739 99.3893 66.8311 97.8322L97.8228 66.8406C99.3988 65.2646 99.3988 62.7165 97.8228 61.1594L96.1592 59.4958C94.5971 57.9338 92.0645 57.9338 90.5024 59.4959L66.8284 83.1696Z"
     fill="url(#paint1_linear_275_76)"
     id="path2" />
  <defs
     id="defs5">
    <linearGradient
       id="paint0_linear_275_76"
       x1="63.9993"
       y1="118"
       x2="63.9993"
       y2="10"
       gradientUnits="userSpaceOnUse">
      <stop
         stop-color="#FDA700"
         id="stop2"
         offset="1"
         style="stop-color:#4c4c4c;stop-opacity:1;" />
      <stop
         offset="1"
         stop-color="#FFDE00"
         id="stop3"
         style="stop-color:#4c4c4c;stop-opacity:1;" />
    </linearGradient>
    <linearGradient
       id="paint1_linear_275_76"
       x1="63.9995"
       y1="99"
       x2="63.9995"
       y2="29"
       gradientUnits="userSpaceOnUse">
      <stop
         stop-color="#FDA700"
         id="stop4"
         offset="0" />
      <stop
         offset="0"
         stop-color="#FFDE00"
         id="stop5"
         style="stop-color:#e9500d;stop-opacity:1;" />
    </linearGradient>
  </defs>
</svg>
